<svg width="32" height="32" viewBox="0 0 32 32" fill="none" xmlns="http://www.w3.org/2000/svg">
<path d="M30.9956 30.7467L21.7422 21.4933C23.9644 19.2089 25.3333 16.0978 25.3333 12.6667C25.3333 5.67111 19.6622 0 12.6667 0C5.67111 0 0 5.67111 0 12.6667C0 19.6622 5.67111 25.3333 12.6667 25.3333C15.5911 25.3333 18.2667 24.3378 20.4089 22.6755L29.7333 32L30.9867 30.7467H30.9956ZM1.77778 12.6667C1.77778 6.66667 6.66667 1.77778 12.6667 1.77778C18.6667 1.77778 23.5556 6.66667 23.5556 12.6667C23.5556 18.6667 18.6756 23.5556 12.6667 23.5556C6.65778 23.5556 1.77778 18.6667 1.77778 12.6667Z" fill="black"/>
</svg>
