<svg width="32" height="32" viewBox="0 0 32 32" fill="none" xmlns="http://www.w3.org/2000/svg">
<g clip-path="url(#clip0_6758_13064)">
<path d="M16 0C7.16444 0 0 7.16444 0 16C0 24.8356 7.16444 32 16 32C24.8356 32 32 24.8356 32 16C32 7.16444 24.8356 0 16 0ZM16 30.2222C8.16 30.2222 1.77778 23.84 1.77778 16C1.77778 8.16 8.16 1.77778 16 1.77778C23.84 1.77778 30.2222 8.16 30.2222 16C30.2222 23.84 23.84 30.2222 16 30.2222Z" fill="black"/>
<path d="M11.9207 10.6574L10.6632 11.9141L20.088 21.3454L21.3455 20.0888L11.9207 10.6574Z" fill="black"/>
<path d="M20.0889 10.6592L10.6608 20.0873L11.9179 21.3444L21.346 11.9163L20.0889 10.6592Z" fill="black"/>
</g>
<defs>
<clipPath id="clip0_6758_13064">
<rect width="32" height="32" fill="white"/>
</clipPath>
</defs>
</svg>
