<svg width="143" height="236" viewBox="0 0 143 236" fill="none" xmlns="http://www.w3.org/2000/svg">
<g clip-path="url(#clip0_412_13597)">
<rect width="143" height="236" fill="white"/>
<mask id="mask0_412_13597" style="mask-type:alpha" maskUnits="userSpaceOnUse" x="9" y="0" width="135" height="235">
<rect x="9" width="135" height="235" fill="#D9D9D9"/>
</mask>
<g mask="url(#mask0_412_13597)">
<g clip-path="url(#clip1_412_13597)">
<path d="M180.097 138.696C180.097 138.696 180.062 138.696 180.051 138.696L137.803 124.134C137.733 124.111 137.698 124.029 137.721 123.959C137.744 123.889 137.826 123.853 137.897 123.877L180.144 138.439C180.214 138.462 184.507 142.357 180.226 138.614C180.179 138.579 180.156 138.708 180.097 138.708L180.097 138.696Z" stroke="#D6E9E2" stroke-linecap="round" stroke-linejoin="round"/>
<path d="M75.3203 91.8524C74.8173 91.8524 74.3378 91.712 73.905 91.4313C73.3202 91.057 72.9225 90.4722 72.7704 89.7821C72.478 88.3785 73.3786 86.9867 74.7822 86.6943C76.1858 86.4018 77.5777 87.3025 77.8701 88.706C78.0104 89.3844 77.8818 90.0862 77.5075 90.671C77.1332 91.2559 76.5484 91.6535 75.8583 91.8056C75.6711 91.8407 75.4957 91.8641 75.3086 91.8641L75.3203 91.8524ZM75.3319 86.9165C75.1682 86.9165 75.0161 86.9282 74.8524 86.9633C73.6009 87.2323 72.7938 88.4721 73.0628 89.7236C73.1915 90.3318 73.5541 90.8582 74.0687 91.1974C74.5951 91.5366 75.215 91.6535 75.8232 91.5249C77.0747 91.2559 77.8818 90.016 77.6128 88.7645C77.3788 87.6651 76.408 86.9165 75.3319 86.9165Z" stroke="#D6E9E2" stroke-linecap="round" stroke-linejoin="round"/>
<path d="M75.519 93.0921C74.8757 93.0921 74.2324 92.905 73.6827 92.5424C72.9224 92.0511 72.4078 91.2909 72.2206 90.4019C71.8346 88.5773 73.0043 86.776 74.8289 86.3901C76.6536 86.0041 78.4548 87.1737 78.8408 88.9984C79.2268 90.823 78.0571 92.6243 76.2325 93.0102C75.9986 93.057 75.7646 93.0804 75.519 93.0804L75.519 93.0921ZM75.5307 86.6006C75.3202 86.6006 75.0979 86.624 74.8757 86.6708C74.0687 86.8462 73.3669 87.3258 72.9107 88.0159C72.4545 88.7059 72.3025 89.5364 72.4779 90.3551C72.6534 91.1739 73.1329 91.864 73.823 92.3201C74.5131 92.7763 75.3436 92.9284 76.1623 92.7529C77.8349 92.402 78.911 90.7411 78.5601 89.0685C78.3846 88.2615 77.9051 87.5597 77.215 87.1035C76.7004 86.776 76.1272 86.6006 75.5307 86.6006Z" stroke="#D6E9E2" stroke-linecap="round" stroke-linejoin="round"/>
<path d="M74.4312 96.3318C73.4371 96.3318 72.4662 96.0511 71.6124 95.4897C70.4545 94.7294 69.6591 93.5715 69.3667 92.2147C69.0743 90.8579 69.3433 89.4777 70.0919 88.3081C70.8404 87.1384 72.0101 86.3548 73.3669 86.0624C74.7237 85.77 76.1038 86.0273 77.2735 86.7875C78.4314 87.5478 79.2268 88.7058 79.5192 90.0626C79.8116 91.4193 79.5426 92.7995 78.794 93.9692C78.0454 95.1388 76.8758 95.9225 75.519 96.2149C75.1564 96.2968 74.7938 96.3318 74.4312 96.3318ZM74.4546 86.2378C74.1154 86.2378 73.7646 86.2729 73.4254 86.3431C72.1387 86.6121 71.0393 87.3724 70.3258 88.4718C69.6123 89.5713 69.3667 90.8813 69.6357 92.1679C69.9047 93.4545 70.665 94.554 71.7645 95.2675C72.8639 95.981 74.1739 96.2266 75.4605 95.9576C78.1039 95.3961 79.7999 92.7878 79.2385 90.1444C78.9695 88.8578 78.2092 87.7584 77.1097 87.0449C76.3027 86.5185 75.3787 86.2495 74.4429 86.2495L74.4546 86.2378Z" stroke="#D6E9E2" stroke-linecap="round" stroke-linejoin="round"/>
<path d="M72.7119 98.9287C69.355 98.9287 66.3256 96.5777 65.6004 93.1623C64.77 89.244 67.2847 85.3725 71.203 84.5421C73.0979 84.1444 75.0395 84.507 76.6653 85.5597C78.2911 86.6123 79.4139 88.2498 79.8116 90.1447C80.6421 94.063 78.1273 97.9345 74.209 98.7649C73.7061 98.8702 73.2031 98.9287 72.7002 98.9287L72.7119 98.9287ZM72.7236 84.6707C72.2323 84.6707 71.7528 84.7175 71.2615 84.8228C67.4953 85.6181 65.0741 89.3376 65.8695 93.1039C66.6648 96.8701 70.3843 99.2913 74.1505 98.4959C77.9168 97.7006 80.338 93.9811 79.5426 90.2148C79.1566 88.3902 78.0805 86.8229 76.5132 85.8053C75.367 85.0567 74.057 84.6707 72.7236 84.6707Z" stroke="#D6E9E2" stroke-linecap="round" stroke-linejoin="round"/>
<path d="M72.0686 100.566C68.3258 100.566 64.9572 97.9459 64.1501 94.1445C63.2261 89.7818 66.0216 85.4775 70.396 84.5418C72.5131 84.0973 74.6769 84.495 76.4899 85.6763C78.3028 86.8577 79.5427 88.6706 79.9988 90.7877C80.9228 95.1504 78.1274 99.4547 73.7529 100.39C73.1915 100.507 72.6301 100.566 72.0686 100.566ZM72.0803 84.647C71.5423 84.647 70.9926 84.7055 70.4428 84.8225C68.3959 85.2553 66.6532 86.46 65.5069 88.2028C64.3724 89.9572 63.9747 92.0392 64.4075 94.0861C65.2964 98.2968 69.4603 101.01 73.671 100.11C77.8818 99.2208 80.5953 95.0569 79.6947 90.8462C79.2619 88.7993 78.0572 87.0565 76.3144 85.9103C75.0278 85.0798 73.5658 84.647 72.0686 84.647L72.0803 84.647Z" stroke="#D6E9E2" stroke-linecap="round" stroke-linejoin="round"/>
<path d="M73.3554 102.367C71.4255 102.367 69.5307 101.806 67.8698 100.73C65.6124 99.2558 64.0568 96.9984 63.4953 94.3667C62.9339 91.735 63.4369 89.0331 64.9106 86.7757C66.3844 84.5183 68.6418 82.9627 71.2735 82.4012C76.724 81.255 82.081 84.7405 83.2389 90.1794C84.3969 95.6182 80.8996 100.987 75.4608 102.145C74.759 102.297 74.0455 102.367 73.3437 102.367L73.3554 102.367ZM73.3788 82.4597C72.7121 82.4597 72.022 82.5299 71.3436 82.6702C68.7821 83.2083 66.5832 84.7171 65.1562 86.9161C63.7293 89.115 63.238 91.735 63.7877 94.2965C64.3258 96.858 65.8346 99.057 68.0336 100.484C70.2325 101.911 72.8525 102.402 75.414 101.852C77.9755 101.314 80.1745 99.8055 81.6014 97.6066C83.0284 95.4077 83.5196 92.7877 82.9699 90.2261C81.9991 85.6177 77.9053 82.448 73.3788 82.448L73.3788 82.4597Z" stroke="#D6E9E2" stroke-linecap="round" stroke-linejoin="round"/>
<path d="M72.7705 105.327C70.2324 105.327 67.7527 104.59 65.5655 103.174C62.5946 101.245 60.5594 98.2737 59.8225 94.8115C59.0856 91.3494 59.7523 87.8053 61.6823 84.8345C63.6122 81.8636 66.5831 79.8284 70.0452 79.0915C77.1917 77.5827 84.2447 82.156 85.7535 89.3142C87.2624 96.4607 82.6891 103.514 75.5308 105.023C74.6068 105.221 73.6828 105.315 72.7588 105.315L72.7705 105.327ZM72.7939 79.0915C71.9049 79.0915 71.0043 79.1851 70.1037 79.3722C66.7117 80.0857 63.811 82.0858 61.9162 84.9865C60.0214 87.8872 59.3781 91.3611 60.1032 94.753C60.8167 98.145 62.8168 101.046 65.7175 102.941C68.6183 104.835 72.0921 105.479 75.4841 104.753C82.4785 103.268 86.97 96.3672 85.4845 89.3727C84.1979 83.2788 78.7941 79.0915 72.7939 79.0915Z" stroke="#D6E9E2" stroke-linecap="round" stroke-linejoin="round"/>
<path d="M71.2265 111.514C63.1326 111.514 55.8457 105.853 54.1029 97.6302C52.1028 88.1795 58.1616 78.8692 67.6123 76.8691C77.063 74.869 86.3734 80.9277 88.3735 90.3668C90.3736 99.8175 84.3148 109.128 74.8758 111.128C73.6594 111.385 72.4429 111.514 71.2382 111.514L71.2265 111.514ZM71.2382 76.7638C70.0569 76.7638 68.8638 76.8808 67.6591 77.1381C58.3604 79.1031 52.4069 88.2731 54.3719 97.5718C56.3369 106.87 65.507 112.824 74.8056 110.859C84.1043 108.894 90.0578 99.7239 88.0928 90.4252C86.3734 82.3313 79.2035 76.7638 71.2382 76.7638Z" stroke="#D6E9E2" stroke-linecap="round" stroke-linejoin="round"/>
<path d="M71.9519 119.222C70.1975 119.222 68.443 119.035 66.7353 118.684C66.6651 118.672 66.6067 118.59 66.6301 118.52C66.6418 118.45 66.7236 118.391 66.7938 118.415C68.4781 118.766 70.2209 118.953 71.9519 118.953C85.5549 118.953 97.0525 107.198 97.0525 93.279C97.0525 79.3602 85.1806 68.3188 71.1332 68.3188C57.0858 68.3188 46.2783 79.4655 46.2783 93.1737C46.2783 101.034 49.8808 108.262 56.15 113.011L56.8284 113.502C62.8872 117.444 74.4433 117.374 82.046 113.338C87.4263 110.484 91.0873 106.063 92.6196 100.542C94.3272 94.4252 93.2863 87.3255 89.8358 81.5475C83.9876 71.7575 71.2735 68.5527 61.4836 74.3892C61.4134 74.4243 61.3316 74.4126 61.2965 74.3424C61.2614 74.2723 61.2731 74.1904 61.3433 74.1553C71.2618 68.2369 84.1513 71.4885 90.0814 81.4071C93.567 87.2436 94.6196 94.4252 92.8886 100.613C91.3212 106.204 87.6252 110.683 82.1746 113.572C75.3322 117.198 63.4486 118.134 56.6647 113.724L55.9746 113.221C49.6234 108.426 45.9858 101.116 45.9858 93.162C45.9858 79.3017 57.2612 68.0264 71.1215 68.0264C84.9818 68.0264 97.3215 79.5825 97.3215 93.2673C97.3215 106.952 85.6953 119.222 71.9402 119.222L71.9519 119.222Z" stroke="#D6E9E2" stroke-linecap="round" stroke-linejoin="round"/>
<path d="M71.7178 124.66C69.5891 124.66 67.4603 124.438 65.4017 124.005C65.3315 123.994 65.2731 123.912 65.2965 123.842C65.3082 123.772 65.39 123.713 65.4602 123.736C67.5071 124.169 69.6124 124.391 71.7178 124.391C87.9057 124.391 101.088 110.438 101.088 93.2906C101.088 76.1436 87.5548 63.1372 70.9341 63.1372C54.3135 63.1372 40.7807 76.67 40.7807 93.2906C40.7807 99.6067 42.7223 115.104 60.6881 122.45C60.7582 122.473 60.7933 122.555 60.7699 122.637C60.7465 122.707 60.653 122.742 60.5828 122.719C42.465 115.315 40.5 99.6769 40.5 93.3023C40.5 76.5179 54.1498 62.8682 70.9341 62.8682C87.7185 62.8682 101.368 76.5179 101.368 93.3023C101.368 110.087 88.0694 124.672 71.7178 124.672L71.7178 124.66Z" stroke="#D6E9E2" stroke-linecap="round" stroke-linejoin="round"/>
<path d="M70.3026 132.673C70.3026 132.673 70.2207 132.673 70.1856 132.673C59.9746 132.638 50.5005 128.45 43.5294 120.859C43.0733 120.356 42.5937 119.877 42.1492 119.397C40.734 117.935 39.4006 116.543 38.3713 114.812C38.3362 114.742 38.3596 114.66 38.4181 114.625C38.4883 114.59 38.5701 114.602 38.6052 114.672C39.6228 116.38 40.9445 117.76 42.3481 119.21C42.8043 119.678 43.2721 120.169 43.74 120.672C50.6643 128.193 60.0565 132.357 70.1973 132.392C70.2324 132.392 70.2792 132.392 70.3143 132.392C80.2212 132.392 89.9175 128.497 97.6138 121.409C113.345 106.929 114.375 82.3546 99.8946 66.6112C92.8767 58.9851 83.3207 54.5522 72.9694 54.1194C62.618 53.6867 52.7228 57.3126 45.0968 64.3304C36.149 72.553 26.5813 91.9574 36.8508 111.689C36.8858 111.759 36.8508 111.841 36.7923 111.876C36.7221 111.912 36.6402 111.876 36.6051 111.818C26.2538 91.9457 35.9033 72.4127 44.9096 64.1199C52.5825 57.0552 62.5478 53.4059 72.9811 53.8387C83.4026 54.2715 93.0405 58.7395 100.105 66.4124C114.691 82.2611 113.661 107.022 97.8126 121.608C90.0696 128.743 80.303 132.661 70.326 132.661L70.3026 132.673Z" stroke="#D6E9E2" stroke-linecap="round" stroke-linejoin="round"/>
<path d="M71.1913 127.702C68.8052 127.702 66.4309 127.456 64.1267 126.965C64.0565 126.953 63.998 126.871 64.0214 126.801C64.0331 126.731 64.115 126.673 64.1851 126.696C66.4776 127.176 68.8286 127.421 71.1913 127.421C89.7887 127.421 104.351 112.613 104.351 93.7237C104.351 74.8339 89.2155 59.9795 70.6065 59.9795C51.9974 59.9795 36.8623 75.1147 36.8623 93.7237C36.8623 103.888 42.9093 117.514 59.8809 125.316C59.951 125.351 59.9861 125.433 59.951 125.503C59.9159 125.573 59.8341 125.608 59.7639 125.573C42.6637 117.725 36.5815 103.981 36.5815 93.7354C36.5815 74.9743 51.8454 59.7104 70.6065 59.7104C89.3676 59.7104 104.631 74.9743 104.631 93.7354C104.631 102.859 101.193 111.397 94.9585 117.772C88.6892 124.181 80.2444 127.714 71.1913 127.714L71.1913 127.702Z" stroke="#D6E9E2" stroke-linecap="round" stroke-linejoin="round"/>
<path d="M280.686 124.357L280.967 123.9L125.053 123.69C124.972 123.69 124.913 123.631 124.913 123.55C124.913 123.468 124.972 123.409 125.053 123.409L280.967 123.62C281.049 123.62 281.107 123.678 281.107 123.76C281.107 123.842 280.756 124.357 280.686 124.357Z" stroke="#D6E9E2" stroke-linecap="round" stroke-linejoin="round"/>
<path d="M131.662 95.9695C131.592 95.9695 131.533 95.9227 131.522 95.8525C131.276 94.2618 113.334 76.0505 86.5489 57.3361C62.2671 40.3646 25.2362 19.2174 -13.2919 14.7962C-13.3738 14.7962 -13.4206 14.7143 -13.4089 14.6441C-13.4089 14.5623 -13.327 14.5155 -13.2568 14.5272C25.3298 18.9484 62.4075 40.1307 86.7244 57.1139C113.568 75.875 131.569 94.2033 131.814 95.8174C131.826 95.8993 131.779 95.9695 131.697 95.9812C131.697 95.9812 131.686 95.9812 131.674 95.9812L131.662 95.9695Z" stroke="#D6E9E2" stroke-linecap="round" stroke-linejoin="round"/>
<path d="M13.2004 89.852C13.2004 89.852 13.1302 89.8403 13.1069 89.8169C13.0484 89.7584 13.0484 89.6766 13.1069 89.6181C13.294 89.4309 31.9849 70.5997 61.8108 53.6164C79.3321 43.6394 97.216 36.2589 114.959 31.6505C137.136 25.8959 159.172 24.4923 180.436 27.51C180.518 27.51 180.565 27.5918 180.553 27.6737C180.553 27.7556 180.471 27.8024 180.389 27.7907C132.317 20.9951 89.4495 38.2239 61.9512 53.8621C32.1487 70.8219 13.4928 89.6298 13.3057 89.8169C13.2823 89.8403 13.2472 89.8637 13.2004 89.8637L13.2004 89.852Z" stroke="#D6E9E2" stroke-linecap="round" stroke-linejoin="round"/>
<path d="M93.836 169.809C93.836 169.809 93.8243 169.809 93.8126 169.809C93.7307 169.797 93.6839 169.727 93.6956 169.645C93.719 169.493 96.2571 154.475 101.521 138.264C106.386 123.292 114.632 104.204 126.34 98.3439C131.534 95.7356 137.043 95.911 142.715 98.8351C142.786 98.8702 142.809 98.9521 142.774 99.0223C142.739 99.0925 142.657 99.1159 142.587 99.0808C136.996 96.1917 131.569 96.028 126.457 98.5895C114.843 104.403 106.632 123.421 101.778 138.346C96.5262 154.534 93.988 169.528 93.9646 169.68C93.9646 169.751 93.8945 169.797 93.8243 169.797L93.836 169.809Z" stroke="#D6E9E2" stroke-linecap="round" stroke-linejoin="round"/>
<path d="M126.644 96.1565C125.662 96.1565 125.077 95.9928 125.019 95.9694C124.948 95.946 124.902 95.8641 124.925 95.794C124.948 95.7238 125.03 95.677 125.1 95.7004C125.136 95.7004 128.761 96.7414 133.674 93.4196C139.101 89.7586 143.932 82.46 148.026 71.7344C153.616 57.1138 157.687 36.3994 160.108 10.1643C160.108 10.0824 160.178 10.0356 160.26 10.0356C160.342 10.0356 160.389 10.1058 160.389 10.1877C157.956 36.4579 153.885 57.2074 148.283 71.8513C144.154 82.6355 139.288 89.9691 133.814 93.6535C130.738 95.7238 128.188 96.1448 126.644 96.1448L126.644 96.1565Z" stroke="#D6E9E2" stroke-linecap="round" stroke-linejoin="round"/>
<path d="M113.205 98.7413C113.205 98.7413 113.135 98.7296 113.1 98.6945C113.041 98.6361 113.053 98.5542 113.1 98.4957L135.393 77.1497C135.393 77.1497 135.533 77.1029 135.592 77.1497C135.65 77.2082 135.639 77.2901 135.592 77.3485L113.298 98.6945C113.298 98.6945 113.24 98.7296 113.205 98.7296L113.205 98.7413Z" stroke="#D6E9E2" stroke-linecap="round" stroke-linejoin="round"/>
<path d="M97.7426 162.265C97.7426 162.265 97.6958 162.265 97.6724 162.241C97.6022 162.195 97.5905 162.113 97.6256 162.054L125.943 117.011C125.989 116.941 126.071 116.929 126.13 116.964C126.2 117.011 126.212 117.093 126.177 117.152L97.8595 162.195C97.8595 162.195 97.7894 162.265 97.7426 162.265Z" stroke="#D6E9E2" stroke-linecap="round" stroke-linejoin="round"/>
<path d="M118.738 146.638C118.738 146.638 118.691 146.638 118.679 146.626C118.609 146.591 118.586 146.509 118.621 146.439L142.61 98.788C142.645 98.7178 142.727 98.6944 142.797 98.7295C142.867 98.7646 142.891 98.8465 142.856 98.9166L118.866 146.568C118.866 146.568 118.796 146.65 118.738 146.65L118.738 146.638Z" stroke="#D6E9E2" stroke-linecap="round" stroke-linejoin="round"/>
<path d="M149.37 80.4133C149.37 80.4133 149.277 80.3899 149.242 80.3431L116.585 20.1064C116.55 20.0362 116.585 19.9544 116.644 19.9193C116.714 19.8842 116.796 19.9193 116.831 19.9778L149.487 80.2144C149.522 80.2846 149.487 80.3665 149.429 80.4016C149.406 80.4016 149.382 80.4133 149.359 80.4133L149.37 80.4133Z" stroke="#D6E9E2" stroke-linecap="round" stroke-linejoin="round"/>
<path d="M133.931 137.96C133.931 137.96 133.838 137.936 133.802 137.889C120.129 112.309 107.79 93.5249 97.1224 82.0507C89.4027 73.7345 82.7124 69.3951 77.2735 69.1261C72.747 68.9039 70.7937 71.7461 70.7703 71.7695C70.7235 71.8397 70.6416 71.8514 70.5715 71.8046C70.5013 71.7578 70.4896 71.6759 70.5364 71.6058C70.5598 71.5707 72.595 68.6115 77.2852 68.8337C82.8059 69.1027 89.5548 73.4772 97.3329 81.8518C108.012 93.3377 120.363 112.146 134.06 137.749C134.095 137.819 134.06 137.901 134.001 137.936C133.978 137.936 133.954 137.948 133.931 137.948L133.931 137.96Z" stroke="#D6E9E2" stroke-linecap="round" stroke-linejoin="round"/>
<path d="M131.896 105.081C131.089 105.081 130.352 104.543 130.13 103.724C130.013 103.256 130.071 102.765 130.317 102.344C130.563 101.923 130.96 101.63 131.428 101.502C131.896 101.373 132.387 101.443 132.808 101.689C133.229 101.935 133.522 102.332 133.65 102.8C133.779 103.268 133.709 103.759 133.463 104.18C133.218 104.601 132.82 104.894 132.352 105.022C132.2 105.057 132.048 105.081 131.896 105.081ZM131.896 101.724C131.767 101.724 131.639 101.736 131.51 101.771C130.691 101.981 130.2 102.823 130.411 103.642C130.621 104.461 131.463 104.964 132.282 104.742C132.68 104.636 133.019 104.391 133.218 104.028C133.428 103.677 133.487 103.256 133.381 102.859C133.276 102.461 133.031 102.122 132.668 101.923C132.434 101.782 132.165 101.712 131.896 101.712L131.896 101.724Z" stroke="#D6E9E2" stroke-linecap="round" stroke-linejoin="round"/>
<path d="M131.838 103.713C131.65 103.713 131.475 103.666 131.3 103.572C131.054 103.432 130.878 103.198 130.808 102.929C130.656 102.367 130.995 101.783 131.569 101.642C132.13 101.502 132.703 101.829 132.855 102.403C132.925 102.672 132.89 102.964 132.738 103.198C132.598 103.443 132.364 103.619 132.095 103.689C132.001 103.713 131.919 103.724 131.826 103.724L131.838 103.713ZM131.849 101.876C131.779 101.876 131.721 101.876 131.65 101.9C131.241 102.005 130.984 102.426 131.101 102.847C131.147 103.046 131.276 103.221 131.463 103.315C131.639 103.42 131.849 103.443 132.048 103.397C132.457 103.291 132.715 102.87 132.598 102.449C132.504 102.098 132.188 101.864 131.849 101.864L131.849 101.876Z" stroke="#D6E9E2" stroke-linecap="round" stroke-linejoin="round"/>
<path d="M132.329 106.274C131.884 106.274 131.452 106.157 131.066 105.923C130.493 105.584 130.083 105.046 129.908 104.391C129.557 103.057 130.364 101.689 131.697 101.338C133.031 100.987 134.399 101.794 134.75 103.128C135.101 104.461 134.294 105.829 132.961 106.18C132.75 106.239 132.539 106.262 132.329 106.262L132.329 106.274ZM132.341 101.537C132.153 101.537 131.966 101.56 131.779 101.607C130.598 101.911 129.884 103.128 130.188 104.321C130.341 104.894 130.703 105.373 131.218 105.677C131.732 105.981 132.329 106.063 132.902 105.911C134.083 105.607 134.797 104.391 134.493 103.198C134.235 102.203 133.323 101.537 132.341 101.537Z" stroke="#D6E9E2" stroke-linecap="round" stroke-linejoin="round"/>
<path d="M138.891 109.491C137.581 109.491 136.329 108.777 135.698 107.526C135.616 107.35 135.534 107.175 135.487 106.999C135.405 106.952 135.323 106.906 135.241 106.847C134.469 106.286 134.2 105.49 134.493 104.613C134.774 103.759 135.534 102.941 136.376 102.508C135.709 102.274 134.844 102.087 133.709 101.993C133.627 101.993 133.581 101.923 133.581 101.841C133.581 101.759 133.651 101.712 133.733 101.712C135.031 101.818 136.002 102.052 136.727 102.344C137.031 102.227 137.335 102.157 137.628 102.157C138.75 102.017 139.674 102.297 140.388 102.707C141.873 103.093 143.651 104.122 145.195 106.485C145.242 106.555 145.219 106.637 145.16 106.683C145.09 106.73 145.008 106.707 144.961 106.648C143.745 104.789 142.388 103.783 141.16 103.268C141.651 103.701 141.967 104.134 142.072 104.344C142.505 105.198 142.575 106.157 142.271 107.069C141.967 107.97 141.335 108.707 140.493 109.14C139.979 109.397 139.44 109.514 138.902 109.514L138.891 109.491ZM135.826 107.14C135.861 107.233 135.896 107.315 135.943 107.397C136.762 109.011 138.739 109.666 140.353 108.859C141.967 108.04 142.622 106.063 141.815 104.449C141.675 104.157 141.136 103.455 140.259 102.941C139.16 102.66 138.236 102.742 137.733 102.87C138.399 103.35 138.669 103.876 138.762 104.262C139.043 105.327 138.435 106.297 137.698 106.8C137.101 107.21 136.435 107.315 135.826 107.128L135.826 107.14ZM135.709 106.8C136.282 107.058 136.937 106.988 137.534 106.578C138.189 106.134 138.727 105.268 138.481 104.344C138.388 103.97 138.107 103.455 137.394 102.987C135.967 103.701 135.3 105.315 135.698 106.8L135.709 106.8ZM136.727 102.636C135.861 103.011 135.031 103.829 134.75 104.695C134.575 105.221 134.551 105.982 135.382 106.602C135.101 105.128 135.768 103.596 137.125 102.824C137.008 102.765 136.879 102.695 136.739 102.636L136.727 102.636ZM137.101 102.508C137.218 102.566 137.323 102.625 137.429 102.683C137.745 102.578 138.353 102.461 139.125 102.496C138.68 102.391 138.189 102.356 137.639 102.426C137.464 102.426 137.288 102.449 137.101 102.508Z" stroke="#D6E9E2" stroke-linecap="round" stroke-linejoin="round"/>
<path d="M134.025 107.607C133.709 107.607 133.393 107.502 133.136 107.292C132.539 106.8 132.457 105.923 132.948 105.327C133.44 104.73 134.317 104.648 134.913 105.139C135.51 105.631 135.592 106.508 135.101 107.104C134.82 107.432 134.422 107.607 134.025 107.607ZM134.025 105.104C133.709 105.104 133.381 105.245 133.159 105.502C132.761 105.982 132.832 106.683 133.311 107.069C133.791 107.455 134.492 107.397 134.878 106.917C135.276 106.438 135.206 105.736 134.726 105.35C134.516 105.175 134.27 105.093 134.013 105.093L134.025 105.104Z" stroke="#D6E9E2" stroke-linecap="round" stroke-linejoin="round"/>
<path d="M134.025 107.467C133.814 107.467 133.615 107.397 133.44 107.256C133.054 106.941 132.995 106.356 133.323 105.97C133.639 105.584 134.224 105.525 134.61 105.853C134.996 106.169 135.054 106.753 134.727 107.139C134.551 107.362 134.282 107.467 134.025 107.467ZM134.025 105.923C133.838 105.923 133.662 106.005 133.534 106.145C133.311 106.414 133.346 106.812 133.615 107.034C133.884 107.256 134.282 107.221 134.504 106.952C134.727 106.683 134.691 106.286 134.422 106.063C134.305 105.97 134.165 105.923 134.025 105.923Z" stroke="#D6E9E2" stroke-linecap="round" stroke-linejoin="round"/>
<path d="M143.944 104.496C143.944 104.496 143.885 104.496 143.862 104.496C143.651 104.473 143.464 104.368 143.335 104.204C143.207 104.04 143.148 103.83 143.172 103.631C143.195 103.42 143.3 103.233 143.464 103.104C143.803 102.835 144.294 102.882 144.575 103.221C144.704 103.385 144.762 103.596 144.739 103.794C144.715 104.005 144.61 104.192 144.446 104.321C144.306 104.438 144.131 104.496 143.955 104.496L143.944 104.496ZM143.944 103.198C143.827 103.198 143.721 103.233 143.628 103.315C143.522 103.397 143.452 103.525 143.441 103.654C143.429 103.794 143.464 103.923 143.546 104.028C143.628 104.134 143.756 104.204 143.885 104.216C144.014 104.227 144.154 104.192 144.259 104.11C144.365 104.028 144.435 103.9 144.446 103.771C144.458 103.631 144.423 103.502 144.341 103.397C144.236 103.268 144.096 103.21 143.944 103.21L143.944 103.198Z" stroke="#D6E9E2" stroke-linecap="round" stroke-linejoin="round"/>
<path d="M134.598 119.935C134.528 119.935 134.446 119.935 134.376 119.935C133.358 119.912 132.516 119.503 131.849 118.988C130.153 118.742 127.884 118.052 125.592 116.45C125.533 116.403 125.51 116.321 125.557 116.251C125.603 116.192 125.685 116.169 125.755 116.216C127.826 117.654 129.861 118.345 131.452 118.637C130.598 117.842 130.13 116.918 130.036 116.649C129.744 115.748 129.826 114.777 130.259 113.935C130.691 113.093 131.428 112.461 132.341 112.169C133.253 111.876 134.212 111.958 135.054 112.391C135.85 112.8 136.446 113.479 136.762 114.298C137.113 114.415 137.452 114.625 137.756 114.906C138.598 115.701 138.832 116.672 138.411 117.643C137.838 118.964 136.224 119.924 134.598 119.924L134.598 119.935ZM132.422 119.046C132.972 119.386 133.627 119.619 134.387 119.643C135.966 119.725 137.616 118.801 138.154 117.538C138.516 116.684 138.317 115.818 137.569 115.116C137.358 114.918 137.113 114.754 136.867 114.648C137.089 115.502 136.996 116.391 136.598 117.187C136.247 117.865 135.709 118.403 135.042 118.742C135.089 118.766 135.148 118.789 135.194 118.824C135.265 118.859 135.288 118.941 135.265 119.011C135.23 119.081 135.148 119.105 135.078 119.081C134.949 119.023 134.832 118.964 134.727 118.894C134.656 118.918 134.586 118.941 134.516 118.964C134.165 119.081 133.417 119.152 132.422 119.058L132.422 119.046ZM131.955 118.719C133.148 118.883 134.025 118.812 134.423 118.684C133.405 117.97 133.253 117.14 133.265 116.66C133.288 115.701 133.978 114.789 134.961 114.379C135.44 114.181 135.943 114.122 136.411 114.216C136.107 113.537 135.58 112.988 134.914 112.637C134.13 112.239 133.241 112.169 132.411 112.438C131.58 112.707 130.89 113.28 130.493 114.064C130.095 114.847 130.025 115.736 130.294 116.567C130.387 116.847 130.949 117.923 131.955 118.719ZM135.978 114.45C135.686 114.45 135.382 114.508 135.078 114.637C134.2 114.999 133.569 115.842 133.545 116.672C133.522 117.397 133.943 118.064 134.738 118.567C135.428 118.263 135.99 117.736 136.341 117.058C136.738 116.274 136.809 115.385 136.54 114.555C136.54 114.555 136.54 114.543 136.54 114.532C136.352 114.485 136.165 114.461 135.978 114.461L135.978 114.45Z" stroke="#D6E9E2" stroke-linecap="round" stroke-linejoin="round"/>
<path d="M128.083 117.76C128.013 117.76 127.943 117.76 127.872 117.736C127.674 117.678 127.498 117.549 127.393 117.374C127.288 117.187 127.264 116.976 127.311 116.777C127.358 116.578 127.498 116.403 127.674 116.298C127.861 116.192 128.071 116.169 128.27 116.216C128.469 116.274 128.644 116.403 128.75 116.578C128.855 116.766 128.878 116.976 128.832 117.175C128.785 117.374 128.644 117.549 128.469 117.655C128.352 117.725 128.212 117.76 128.071 117.76L128.083 117.76ZM127.639 117.233C127.709 117.35 127.814 117.432 127.943 117.467C128.071 117.502 128.212 117.479 128.329 117.421C128.446 117.35 128.527 117.245 128.563 117.116C128.598 116.988 128.574 116.847 128.516 116.73C128.446 116.614 128.34 116.532 128.212 116.497C128.083 116.461 127.943 116.485 127.826 116.543C127.709 116.614 127.627 116.719 127.592 116.847C127.557 116.976 127.58 117.116 127.639 117.233Z" stroke="#D6E9E2" stroke-linecap="round" stroke-linejoin="round"/>
<path d="M131.101 111.619C130.61 111.619 130.118 111.572 129.627 111.467C127.732 111.069 126.107 109.97 125.042 108.344C123.978 106.718 123.615 104.788 124.001 102.893C124.808 98.9868 128.656 96.4603 132.563 97.2674C134.458 97.6651 136.084 98.7645 137.148 100.39C138.212 102.016 138.575 103.946 138.189 105.841C137.475 109.256 134.458 111.619 131.101 111.619ZM131.089 97.396C127.861 97.396 124.949 99.6652 124.27 102.952C123.896 104.777 124.247 106.636 125.264 108.192C126.282 109.747 127.849 110.812 129.674 111.186C133.44 111.97 137.125 109.537 137.908 105.782C138.283 103.958 137.932 102.098 136.914 100.542C135.896 98.9868 134.329 97.9224 132.504 97.5481C132.025 97.4545 131.557 97.4077 131.089 97.4077L131.089 97.396Z" stroke="#D6E9E2" stroke-linecap="round" stroke-linejoin="round"/>
<path d="M136.692 123C136.2 123 135.709 122.953 135.218 122.848C133.323 122.45 131.697 121.351 130.633 119.725C129.569 118.099 129.206 116.169 129.592 114.274C130.399 110.368 134.247 107.841 138.154 108.648C140.049 109.046 141.674 110.145 142.739 111.771C143.803 113.397 144.166 115.327 143.78 117.222C143.066 120.637 140.049 123 136.692 123ZM136.692 108.789C133.463 108.789 130.551 111.058 129.873 114.344C129.498 116.169 129.849 118.029 130.867 119.584C131.884 121.14 133.452 122.204 135.276 122.579C139.043 123.362 142.727 120.93 143.511 117.175C143.885 115.35 143.534 113.491 142.517 111.935C141.499 110.379 139.932 109.315 138.107 108.941C137.627 108.847 137.16 108.8 136.692 108.8L136.692 108.789Z" stroke="#D6E9E2" stroke-linecap="round" stroke-linejoin="round"/>
<path d="M58.2082 153.937C58.1381 153.937 58.0796 153.878 58.0679 153.808C58.0679 153.726 58.1147 153.668 58.1965 153.656C106.491 148.697 143.967 121.666 166.892 99.8641C191.735 76.2373 205.326 53.4994 205.455 53.2772C205.49 53.207 205.583 53.1836 205.642 53.2304C205.712 53.2655 205.735 53.3591 205.689 53.4175C205.56 53.6398 191.945 76.4127 167.079 100.075C152.47 113.97 136.89 125.444 120.773 134.181C100.631 145.106 79.5776 151.761 58.2199 153.948C58.2199 153.948 58.2199 153.948 58.2082 153.948L58.2082 153.937Z" stroke="#D6E9E2" stroke-linecap="round" stroke-linejoin="round"/>
<path d="M110.503 98.7412C110.503 98.7412 110.398 98.7061 110.375 98.6594C110.34 98.5892 110.375 98.5073 110.445 98.4722L230.544 46.0254C230.614 46.002 230.696 46.0254 230.731 46.0956C230.766 46.1657 230.731 46.2476 230.661 46.2827L110.562 98.7295C110.562 98.7295 110.527 98.7295 110.503 98.7295L110.503 98.7412Z" stroke="#D6E9E2" stroke-linecap="round" stroke-linejoin="round"/>
<path d="M141.113 73.7111C141.054 73.7111 140.996 73.676 140.972 73.6059C140.949 73.5357 140.996 73.4538 141.066 73.4304L227.503 51.9324C227.573 51.909 227.655 51.9557 227.678 52.0259C227.702 52.0961 227.655 52.178 227.585 52.2014L141.148 73.6994C141.148 73.6994 141.124 73.6994 141.113 73.6994L141.113 73.7111Z" stroke="#D6E9E2" stroke-linecap="round" stroke-linejoin="round"/>
<path d="M96.0347 167.329C96.0347 167.329 95.9528 167.306 95.9177 167.271C95.8709 167.212 95.8826 167.119 95.9528 167.072L221.502 73.8044C221.561 73.7577 221.654 73.7694 221.701 73.8395C221.748 73.898 221.736 73.9916 221.666 74.0384L96.1166 167.306C96.1166 167.306 96.0581 167.329 96.0347 167.329Z" stroke="#D6E9E2" stroke-linecap="round" stroke-linejoin="round"/>
<path d="M150.715 43.698C150.259 43.698 149.803 43.6746 149.347 43.6161C144.996 43.1015 141.604 40.2125 139.253 35.0193C137.417 30.867 138.586 25.4048 142.083 21.7438C146.177 17.4629 152.47 16.5506 159.347 19.2408L159.359 19.2408C162.33 20.8432 164.155 23.2175 164.81 26.2937C165.769 30.867 163.839 35.9433 161.5 38.9493C160.154 40.6686 155.651 43.6863 150.727 43.6863L150.715 43.698ZM151.897 18.0126C148.107 18.0126 144.785 19.346 142.294 21.9426C138.867 25.5217 137.721 30.8436 139.51 34.9023C141.814 39.9902 145.148 42.8325 149.382 43.3354C154.716 43.967 159.839 40.6336 161.277 38.7855C163.581 35.8263 165.476 30.8436 164.541 26.3639C163.909 23.3696 162.131 21.0654 159.242 19.5098C156.681 18.5039 154.201 18.0126 151.897 18.0126Z" stroke="#D6E9E2" stroke-linecap="round" stroke-linejoin="round"/>
<path d="M150.797 46.9615C141.651 46.9615 133.919 39.6512 133.919 30.9842C133.919 25.557 136.633 20.5392 141.183 17.5683C141.253 17.5216 141.335 17.545 141.382 17.6034C141.429 17.6736 141.405 17.7555 141.347 17.8023C136.879 20.7147 134.2 25.6506 134.2 30.9725C134.2 39.4758 141.803 46.6691 150.797 46.6691C159.067 46.6691 165.535 39.429 165.535 30.1888C165.535 30.1069 165.593 30.0485 165.675 30.0485C165.757 30.0485 165.816 30.1069 165.816 30.1888C165.816 39.5927 159.219 46.9498 150.797 46.9498L150.797 46.9615Z" stroke="#D6E9E2" stroke-linecap="round" stroke-linejoin="round"/>
<path d="M150.54 53.1021C148.283 53.1021 146.166 52.798 144.458 52.2015L144.048 52.0261C138.235 49.5113 133.779 44.938 131.486 39.1366C129.206 33.3468 129.334 26.9372 131.849 21.1241C137.276 8.57377 152.669 3.97707 163.663 7.56788C171.664 10.1879 179.816 19.007 181.091 26.4459C181.103 26.5278 181.056 26.598 180.974 26.6097C180.892 26.6214 180.822 26.5746 180.81 26.4927C179.547 19.1357 171.488 10.4218 163.57 7.8252C152.704 4.26948 137.463 8.8077 132.106 21.2176C126.937 33.1948 132.235 46.6106 144.165 51.757L144.563 51.9325C149.967 53.839 159.652 52.7044 164.482 48.3183C171.243 42.201 174.12 29.873 167.652 21.2527C164.693 17.311 160.201 14.8431 155.02 14.305C149.99 13.7787 144.82 15.194 140.832 18.1882C140.773 18.235 140.68 18.2233 140.633 18.1649C140.586 18.1064 140.598 18.0128 140.657 17.966C144.703 14.9366 149.943 13.498 155.043 14.0243C160.307 14.574 164.868 17.0771 167.874 21.0773C174.436 29.8145 171.512 42.318 164.669 48.5171C161.277 51.5816 155.558 53.0787 150.54 53.0787L150.54 53.1021Z" stroke="#D6E9E2" stroke-linecap="round" stroke-linejoin="round"/>
<path d="M107.649 58.2132C107.649 58.2132 107.544 58.1781 107.521 58.1313C107.486 58.0611 107.521 57.9792 107.591 57.9441C108.293 57.64 177.407 26.9018 189.864 9.24015C189.91 9.18167 189.992 9.15828 190.062 9.20507C190.121 9.25185 190.144 9.33373 190.097 9.4039C177.594 27.124 108.41 57.8857 107.708 58.2015C107.684 58.2015 107.673 58.2132 107.649 58.2132Z" stroke="#D6E9E2" stroke-linecap="round" stroke-linejoin="round"/>
<path d="M114.422 204.396C105.205 204.396 95.9294 201.343 88.2566 195.073C79.6948 188.079 73.87 177.611 72.2675 166.347C70.6067 154.709 73.5074 143.633 80.4083 135.176C80.8644 134.615 81.3089 134.053 81.73 133.503C82.8645 132.053 83.9289 130.685 85.2506 129.468L85.2974 129.421C85.3676 129.363 85.3909 129.339 85.4845 129.258C85.543 129.211 85.6366 129.211 85.6834 129.269C85.7302 129.328 85.7301 129.421 85.6717 129.468C85.5781 129.55 85.5547 129.573 85.4962 129.632L85.4494 129.679C84.1394 130.872 83.0868 132.24 81.9639 133.679C81.5428 134.229 81.0984 134.79 80.6422 135.351C73.7881 143.749 70.9108 154.744 72.56 166.3C74.1507 177.494 79.9404 187.904 88.4554 194.851C106.023 209.203 131.99 206.583 146.341 189.026C160.693 171.458 158.073 145.492 140.516 131.141C133.791 125.643 123.042 119.55 110.047 121.76C109.977 121.76 109.895 121.725 109.883 121.643C109.872 121.561 109.918 121.491 110 121.479C123.089 119.257 133.919 125.386 140.692 130.918C158.377 145.364 161.008 171.505 146.563 189.202C138.388 199.214 126.469 204.396 114.457 204.396L114.422 204.396Z" stroke="#D6E9E2" stroke-linecap="round" stroke-linejoin="round"/>
<path d="M115.135 180.803C106.059 180.803 97.4033 176.441 91.9995 169.13C91.9528 169.072 91.9645 168.978 92.0346 168.931C92.0931 168.885 92.1867 168.896 92.2335 168.967C97.5904 176.207 106.152 180.534 115.147 180.534C130.843 180.534 143.628 167.762 143.628 152.054C143.628 136.345 130.855 123.573 115.147 123.573C99.4385 123.573 86.666 136.345 86.666 152.054C86.666 155.621 87.321 159.095 88.5959 162.393C88.6193 162.463 88.5959 162.545 88.514 162.569C88.4438 162.592 88.362 162.569 88.3386 162.487C87.0403 159.165 86.3853 155.644 86.3853 152.042C86.3853 136.181 99.2864 123.28 115.147 123.28C131.007 123.28 143.908 136.181 143.908 152.042C143.908 167.902 131.007 180.803 115.147 180.803L115.135 180.803Z" stroke="#D6E9E2" stroke-linecap="round" stroke-linejoin="round"/>
<path d="M108.854 147.387C102.643 147.387 97.5786 142.334 97.5786 136.111C97.5786 129.889 102.631 124.836 108.854 124.836C115.076 124.836 120.129 129.889 120.129 136.111C120.129 142.334 115.076 147.387 108.854 147.387ZM108.854 125.117C102.795 125.117 97.8593 130.053 97.8593 136.111C97.8593 142.17 102.795 147.106 108.854 147.106C114.913 147.106 119.849 142.17 119.849 136.111C119.849 130.053 114.913 125.117 108.854 125.117Z" stroke="#D6E9E2" stroke-linecap="round" stroke-linejoin="round"/>
<path d="M108.152 147.387C102.959 147.387 98.7368 143.165 98.7368 137.971C98.7368 132.778 102.959 128.556 108.152 128.556C113.346 128.556 117.568 132.778 117.568 137.971C117.568 143.165 113.346 147.387 108.152 147.387ZM108.152 128.825C103.111 128.825 99.0175 132.918 99.0175 137.96C99.0175 143.001 103.111 147.095 108.152 147.095C113.194 147.095 117.287 143.001 117.287 137.96C117.287 132.918 113.194 128.825 108.152 128.825Z" stroke="#D6E9E2" stroke-linecap="round" stroke-linejoin="round"/>
<path d="M107.86 146.592C103.38 146.592 99.7427 142.954 99.7427 138.474C99.7427 133.995 103.38 130.357 107.86 130.357C112.34 130.357 115.977 133.995 115.977 138.474C115.977 142.954 112.34 146.592 107.86 146.592ZM107.86 130.638C103.532 130.638 100.023 134.158 100.023 138.474C100.023 142.79 103.544 146.311 107.86 146.311C112.176 146.311 115.697 142.79 115.697 138.474C115.697 134.158 112.176 130.638 107.86 130.638Z" stroke="#D6E9E2" stroke-linecap="round" stroke-linejoin="round"/>
<path d="M107.111 144.439C103.824 144.439 101.146 141.761 101.146 138.474C101.146 135.187 103.824 132.509 107.111 132.509C110.398 132.509 113.076 135.187 113.076 138.474C113.076 141.761 110.398 144.439 107.111 144.439ZM107.111 132.778C103.977 132.778 101.427 135.328 101.427 138.462C101.427 141.597 103.977 144.147 107.111 144.147C110.246 144.147 112.796 141.597 112.796 138.462C112.796 135.328 110.246 132.778 107.111 132.778Z" stroke="#D6E9E2" stroke-linecap="round" stroke-linejoin="round"/>
<path d="M106.772 144.112C104.257 144.112 102.21 142.065 102.21 139.55C102.21 137.036 104.257 134.989 106.772 134.989C109.287 134.989 111.334 137.036 111.334 139.55C111.334 142.065 109.287 144.112 106.772 144.112ZM106.772 135.269C104.409 135.269 102.491 137.188 102.491 139.55C102.491 141.913 104.409 143.831 106.772 143.831C109.135 143.831 111.053 141.913 111.053 139.55C111.053 137.188 109.135 135.269 106.772 135.269Z" stroke="#D6E9E2" stroke-linecap="round" stroke-linejoin="round"/>
<path d="M106.316 149.984C99.1579 149.984 93.3447 144.159 93.3447 137.012C93.3447 129.866 99.1696 124.041 106.316 124.041C113.463 124.041 119.287 129.866 119.287 137.012C119.287 144.159 113.463 149.984 106.316 149.984ZM106.316 124.322C99.3216 124.322 93.6254 130.018 93.6254 137.012C93.6254 144.007 99.3216 149.703 106.316 149.703C113.311 149.703 119.007 144.007 119.007 137.012C119.007 130.018 113.311 124.322 106.316 124.322Z" stroke="#D6E9E2" stroke-linecap="round" stroke-linejoin="round"/>
<path d="M104.117 156.194C94.7951 156.194 87.2041 148.603 87.2041 139.281C87.2041 129.959 94.7951 122.368 104.117 122.368C113.439 122.368 121.03 129.959 121.03 139.281C121.03 148.603 113.439 156.194 104.117 156.194ZM104.117 122.649C94.9471 122.649 87.4848 130.111 87.4848 139.281C87.4848 148.451 94.9471 155.914 104.117 155.914C113.287 155.914 120.749 148.451 120.749 139.281C120.749 130.111 113.287 122.649 104.117 122.649Z" stroke="#D6E9E2" stroke-linecap="round" stroke-linejoin="round"/>
<path d="M106.047 162.101C102.117 162.101 98.5728 159.388 97.6839 155.399C97.1926 153.165 97.5903 150.873 98.8184 148.943C100.047 147.013 101.953 145.679 104.187 145.176C108.795 144.159 113.38 147.06 114.41 151.68C115.439 156.288 112.515 160.873 107.907 161.902C107.287 162.043 106.655 162.113 106.047 162.113L106.047 162.101ZM106.047 145.247C105.45 145.247 104.854 145.317 104.246 145.445C102.082 145.925 100.245 147.223 99.0524 149.083C97.8593 150.954 97.4733 153.165 97.9529 155.329C98.9471 159.785 103.38 162.604 107.836 161.622C110 161.142 111.837 159.844 113.03 157.984C114.223 156.113 114.609 153.902 114.129 151.738C113.275 147.878 109.836 145.247 106.047 145.247Z" stroke="#D6E9E2" stroke-linecap="round" stroke-linejoin="round"/>
<path d="M106.795 157.212C104.538 157.212 102.503 155.644 101.988 153.352C101.403 150.697 103.076 148.065 105.731 147.469C108.386 146.884 111.018 148.556 111.614 151.211C111.895 152.498 111.673 153.82 110.959 154.931C110.258 156.042 109.158 156.814 107.871 157.095C107.509 157.177 107.158 157.212 106.795 157.212ZM106.807 147.644C106.468 147.644 106.14 147.679 105.801 147.761C103.298 148.322 101.719 150.802 102.269 153.305C102.83 155.808 105.31 157.387 107.813 156.826C109.029 156.557 110.059 155.832 110.725 154.779C111.392 153.726 111.614 152.486 111.345 151.27C110.866 149.106 108.936 147.632 106.807 147.632L106.807 147.644Z" stroke="#D6E9E2" stroke-linecap="round" stroke-linejoin="round"/>
<path d="M107.626 155.539C106.877 155.539 106.141 155.329 105.497 154.919C104.597 154.346 103.977 153.457 103.743 152.428C103.509 151.399 103.696 150.323 104.269 149.422C104.842 148.521 105.731 147.902 106.76 147.668C107.801 147.434 108.866 147.621 109.766 148.194C110.667 148.767 111.287 149.656 111.521 150.685C111.755 151.726 111.568 152.791 110.995 153.691C110.421 154.592 109.533 155.212 108.503 155.446C108.211 155.516 107.918 155.539 107.626 155.539ZM107.638 147.855C107.369 147.855 107.1 147.89 106.831 147.948C105.86 148.159 105.041 148.744 104.515 149.574C103.988 150.405 103.813 151.399 104.023 152.37C104.234 153.34 104.819 154.159 105.649 154.685C106.48 155.212 107.474 155.387 108.445 155.177C109.416 154.966 110.234 154.381 110.761 153.551C111.287 152.72 111.462 151.726 111.252 150.755C111.041 149.785 110.457 148.966 109.626 148.44C109.03 148.054 108.339 147.855 107.649 147.855L107.638 147.855Z" stroke="#D6E9E2" stroke-linecap="round" stroke-linejoin="round"/>
<path d="M106.597 168.896C106.527 168.896 106.468 168.85 106.457 168.779C106.445 168.698 106.492 168.627 106.573 168.616C117.51 166.826 123.44 152.954 123.685 145.691C123.919 138.696 121.592 132.134 117.276 127.678C114.223 124.52 110.433 122.789 106.585 122.789C106.503 122.789 106.445 122.731 106.445 122.649C106.445 122.567 106.503 122.508 106.585 122.508C110.503 122.508 114.375 124.274 117.475 127.491C121.837 132.006 124.2 138.638 123.954 145.714C123.709 153.059 117.697 167.083 106.609 168.896C106.609 168.896 106.597 168.896 106.585 168.896L106.597 168.896Z" stroke="#D6E9E2" stroke-linecap="round" stroke-linejoin="round"/>
<path d="M111.591 166.289C111.591 166.289 111.591 166.289 111.58 166.289C104.819 165.481 100.199 160.815 97.5087 157.048C94.4559 152.767 92.3974 147.422 92.257 143.434C92.0582 137.89 93.8009 132.357 97.1461 127.854C97.1929 127.796 97.2748 127.784 97.345 127.831C97.4151 127.877 97.4152 127.959 97.3684 128.029C94.0583 132.486 92.3389 137.948 92.5377 143.434C92.6781 147.375 94.725 152.662 97.7427 156.896C100.398 160.616 104.959 165.224 111.615 166.02C111.697 166.02 111.743 166.101 111.732 166.172C111.732 166.242 111.661 166.3 111.591 166.3L111.591 166.289Z" stroke="#D6E9E2" stroke-linecap="round" stroke-linejoin="round"/>
<path d="M108.012 168.019C107.93 168.019 107.872 167.961 107.872 167.879C107.872 167.797 107.93 167.738 108.012 167.738C112.89 167.738 116.995 162.545 116.995 156.393C116.995 150.241 112.492 145.34 107.345 145.34C107.264 145.34 107.205 145.281 107.205 145.199C107.205 145.118 107.264 145.059 107.345 145.059C112.632 145.059 117.276 150.358 117.276 156.393C117.276 162.428 113.03 168.008 108.012 168.008L108.012 168.019Z" stroke="#D6E9E2" stroke-linecap="round" stroke-linejoin="round"/>
<path d="M139.054 141.796C138.75 141.796 138.446 141.726 138.165 141.586C137.686 141.352 137.335 140.942 137.171 140.428C137.007 139.925 137.042 139.387 137.288 138.907C137.522 138.427 137.931 138.077 138.446 137.913C138.961 137.749 139.487 137.784 139.967 138.03C140.949 138.521 141.335 139.726 140.844 140.697C140.61 141.176 140.201 141.527 139.686 141.691C139.487 141.761 139.276 141.796 139.066 141.796L139.054 141.796ZM139.054 138.1C138.879 138.1 138.692 138.123 138.516 138.182C138.083 138.322 137.733 138.626 137.522 139.036C137.101 139.878 137.44 140.907 138.282 141.328C138.692 141.539 139.148 141.562 139.581 141.422C140.013 141.281 140.364 140.977 140.575 140.568C140.996 139.726 140.657 138.696 139.815 138.275C139.569 138.158 139.312 138.088 139.043 138.088L139.054 138.1Z" stroke="#D6E9E2" stroke-linecap="round" stroke-linejoin="round"/>
<path d="M138.657 141.492C138.481 141.492 138.306 141.457 138.142 141.375C137.873 141.235 137.662 141.001 137.569 140.708C137.475 140.416 137.499 140.1 137.639 139.831C137.779 139.562 138.013 139.351 138.306 139.258C138.598 139.164 138.914 139.188 139.183 139.328C139.452 139.468 139.663 139.702 139.756 139.995C139.85 140.287 139.826 140.603 139.686 140.872C139.487 141.27 139.078 141.504 138.657 141.504L138.657 141.492ZM138.657 139.48C138.563 139.48 138.469 139.492 138.388 139.527C138.165 139.597 137.99 139.749 137.885 139.96C137.779 140.17 137.768 140.404 137.838 140.626C137.908 140.849 138.06 141.024 138.271 141.129C138.703 141.34 139.218 141.176 139.44 140.743C139.546 140.533 139.557 140.299 139.487 140.077C139.417 139.854 139.265 139.679 139.054 139.574C138.926 139.515 138.797 139.48 138.668 139.48L138.657 139.48Z" stroke="#D6E9E2" stroke-linecap="round" stroke-linejoin="round"/>
<path d="M139.054 141.808C138.645 141.808 138.224 141.714 137.826 141.515C136.481 140.837 135.931 139.188 136.61 137.831C137.288 136.486 138.937 135.936 140.294 136.615C141.639 137.293 142.189 138.942 141.511 140.299C141.031 141.258 140.06 141.808 139.054 141.808ZM136.855 137.96C136.247 139.176 136.738 140.65 137.943 141.27C139.16 141.878 140.633 141.387 141.253 140.182C141.861 138.966 141.37 137.492 140.165 136.872C138.949 136.264 137.475 136.755 136.855 137.96Z" stroke="#D6E9E2" stroke-linecap="round" stroke-linejoin="round"/>
<path d="M134.703 165.47C134.119 165.47 133.534 165.294 133.019 164.932C131.721 163.996 131.428 162.195 132.364 160.896C132.82 160.265 133.487 159.855 134.247 159.727C135.007 159.598 135.768 159.785 136.399 160.23C137.031 160.686 137.44 161.353 137.557 162.113C137.686 162.873 137.499 163.633 137.054 164.265C136.493 165.049 135.604 165.47 134.703 165.47ZM134.703 159.972C134.563 159.972 134.423 159.972 134.282 160.008C133.592 160.125 132.996 160.487 132.586 161.06C131.744 162.23 132.013 163.867 133.183 164.698C133.744 165.107 134.434 165.271 135.124 165.154C135.815 165.037 136.411 164.674 136.82 164.101C137.663 162.932 137.394 161.294 136.224 160.464C135.779 160.136 135.253 159.972 134.703 159.972Z" stroke="#D6E9E2" stroke-linecap="round" stroke-linejoin="round"/>
<path d="M135.405 163.528C135.066 163.528 134.738 163.423 134.446 163.224C134.095 162.966 133.861 162.592 133.791 162.159C133.721 161.727 133.826 161.294 134.083 160.943C134.61 160.206 135.639 160.042 136.376 160.569C136.727 160.826 136.961 161.2 137.031 161.633C137.101 162.066 136.996 162.499 136.738 162.849C136.481 163.2 136.107 163.434 135.674 163.504C135.58 163.516 135.498 163.528 135.405 163.528ZM135.405 160.522C134.984 160.522 134.563 160.721 134.294 161.083C134.083 161.376 134.001 161.738 134.06 162.101C134.118 162.463 134.317 162.779 134.61 162.99C134.902 163.2 135.265 163.294 135.627 163.224C135.99 163.165 136.306 162.966 136.516 162.674C136.727 162.382 136.808 162.019 136.75 161.656C136.691 161.294 136.493 160.978 136.2 160.767C135.955 160.592 135.686 160.51 135.405 160.51L135.405 160.522Z" stroke="#D6E9E2" stroke-linecap="round" stroke-linejoin="round"/>
<path d="M134.516 167.669C133.709 167.669 132.89 167.423 132.177 166.92C130.387 165.633 129.978 163.119 131.264 161.329C131.896 160.464 132.82 159.891 133.873 159.715C134.925 159.54 135.99 159.797 136.855 160.417C138.645 161.703 139.054 164.218 137.768 166.008C136.984 167.096 135.756 167.669 134.504 167.669L134.516 167.669ZM134.528 159.937C134.329 159.937 134.118 159.949 133.92 159.984C132.937 160.148 132.071 160.674 131.487 161.481C130.282 163.154 130.668 165.481 132.34 166.686C134.013 167.891 136.341 167.505 137.545 165.832C138.75 164.16 138.364 161.832 136.692 160.627C136.048 160.16 135.3 159.926 134.516 159.926L134.528 159.937Z" stroke="#D6E9E2" stroke-linecap="round" stroke-linejoin="round"/>
<path d="M145.92 182.464C145.92 182.464 145.896 182.464 145.873 182.464C145.803 182.441 145.756 182.359 145.779 182.289C146.598 179.657 146.54 177.423 146.037 175.575C145.955 175.774 145.861 175.985 145.756 176.195L145.709 176.277C144.224 179.295 140.317 181.306 136.329 179.435C133.51 178.113 132.153 174.651 133.37 171.867C133.498 171.575 133.65 171.294 133.826 171.025C133.791 170.861 133.767 170.698 133.756 170.534C133.662 169.095 134.352 167.949 135.721 167.224C136.914 166.592 138.493 166.347 140.025 166.475C139.615 165.586 139.042 164.592 138.259 163.469C138.212 163.411 138.235 163.317 138.294 163.27C138.352 163.224 138.446 163.247 138.493 163.306C139.323 164.499 139.92 165.563 140.341 166.499C141.662 166.651 142.926 167.084 143.814 167.774C145.709 169.107 147.557 171.435 146.189 175.142C146.797 177.096 146.914 179.505 146.025 182.359C146.002 182.418 145.955 182.453 145.896 182.453L145.92 182.464ZM133.931 171.388C133.826 171.575 133.72 171.774 133.627 171.973C132.469 174.616 133.756 177.914 136.446 179.178C140.282 180.967 144.037 179.049 145.452 176.148L145.499 176.066C145.663 175.751 145.791 175.447 145.908 175.142C144.891 171.996 142.563 170.066 141.171 169.329C141.323 170.768 140.925 171.692 140.528 172.253C139.51 173.68 137.674 173.926 136.317 173.528C135.124 173.189 134.282 172.417 133.931 171.4L133.931 171.388ZM141.136 168.99C142.493 169.657 144.926 171.563 146.072 174.71C147.148 171.353 145.429 169.236 143.674 167.996C142.867 167.376 141.721 166.967 140.493 166.803C140.832 167.622 141.031 168.347 141.136 168.978L141.136 168.99ZM134.13 171.072C134.399 172.113 135.206 172.908 136.387 173.248C137.65 173.61 139.358 173.388 140.294 172.078C140.68 171.54 141.054 170.616 140.867 169.177C140.855 169.177 140.832 169.166 140.82 169.154C139.487 168.569 138.001 168.534 136.633 169.072C135.592 169.481 134.726 170.171 134.118 171.072L134.13 171.072ZM139.229 166.721C138.001 166.721 136.797 166.955 135.861 167.458C134.972 167.926 133.943 168.838 134.048 170.511C134.048 170.569 134.048 170.639 134.06 170.698C134.691 169.856 135.545 169.212 136.551 168.826C137.943 168.277 139.452 168.3 140.832 168.861C140.727 168.253 140.516 167.563 140.177 166.779C139.861 166.744 139.545 166.733 139.229 166.733L139.229 166.721Z" stroke="#D6E9E2" stroke-linecap="round" stroke-linejoin="round"/>
<path d="M131.545 172.429C130.329 172.429 129.346 171.447 129.346 170.23C129.346 169.014 130.329 168.031 131.545 168.031C132.762 168.031 133.744 169.014 133.744 170.23C133.744 171.447 132.762 172.429 131.545 172.429ZM131.545 168.312C130.492 168.312 129.627 169.177 129.627 170.23C129.627 171.283 130.492 172.148 131.545 172.148C132.598 172.148 133.463 171.283 133.463 170.23C133.463 169.177 132.598 168.312 131.545 168.312Z" stroke="#D6E9E2" stroke-linecap="round" stroke-linejoin="round"/>
<path d="M131.604 173.353C131.171 173.353 130.738 173.166 130.399 172.827C130.048 172.476 129.837 172.02 129.814 171.564C129.814 171.482 129.872 171.423 129.943 171.412C130.025 171.412 130.083 171.47 130.095 171.54C130.118 171.926 130.294 172.324 130.598 172.616C130.902 172.92 131.288 173.084 131.65 173.061C132.036 173.037 132.387 172.874 132.645 172.593C132.902 172.312 133.03 171.938 133.019 171.552C133.019 171.47 133.077 171.412 133.147 171.4C133.218 171.4 133.288 171.458 133.3 171.529C133.323 171.985 133.159 172.429 132.855 172.768C132.551 173.108 132.118 173.306 131.662 173.33C131.639 173.33 131.615 173.33 131.592 173.33L131.604 173.353Z" stroke="#D6E9E2" stroke-linecap="round" stroke-linejoin="round"/>
<path d="M132.773 170.113C132.001 170.113 131.37 169.482 131.37 168.71C131.37 167.938 132.001 167.306 132.773 167.306C133.545 167.306 134.177 167.938 134.177 168.71C134.177 169.482 133.545 170.113 132.773 170.113ZM132.773 167.587C132.153 167.587 131.65 168.09 131.65 168.71C131.65 169.33 132.153 169.833 132.773 169.833C133.393 169.833 133.896 169.33 133.896 168.71C133.896 168.09 133.393 167.587 132.773 167.587Z" stroke="#D6E9E2" stroke-linecap="round" stroke-linejoin="round"/>
<path d="M112.246 143.773C112.246 143.773 112.164 143.761 112.141 143.726C112.094 143.668 112.094 143.574 112.152 143.527C128.703 129.527 137.557 110.801 142.072 97.5602C146.961 83.2087 147.955 72.0269 147.967 71.9099C147.967 71.8281 148.037 71.7696 148.119 71.7813C148.201 71.7813 148.248 71.8515 148.248 71.9333C148.248 72.0503 147.242 83.2555 142.341 97.6421C137.814 110.918 128.937 129.69 112.328 143.738C112.304 143.761 112.269 143.773 112.234 143.773L112.246 143.773Z" stroke="#D6E9E2" stroke-linecap="round" stroke-linejoin="round"/>
<path d="M161.254 186.488C161.254 186.488 161.231 186.488 161.207 186.488L72.5835 157.387C72.5134 157.364 72.4666 157.282 72.49 157.212C72.5134 157.142 72.5952 157.095 72.6654 157.118L161.289 186.219C161.36 186.243 161.406 186.324 161.383 186.395C161.36 186.453 161.313 186.488 161.254 186.488Z" stroke="#D6E9E2" stroke-linecap="round" stroke-linejoin="round"/>
<path d="M213.923 220.045C213.853 220.045 213.795 219.999 213.783 219.928C213.549 218.431 191.829 198.056 160.611 176.815C132.598 157.75 91.1108 134.1 52.5593 129.679C52.4775 129.679 52.4307 129.597 52.4307 129.527C52.4307 129.445 52.5125 129.398 52.5827 129.398C91.181 133.831 132.715 157.505 160.763 176.581C190.636 196.898 213.771 218.034 214.052 219.882C214.064 219.964 214.017 220.034 213.935 220.045C213.935 220.045 213.923 220.045 213.912 220.045L213.923 220.045Z" stroke="#D6E9E2" stroke-linecap="round" stroke-linejoin="round"/>
<path d="M38.4884 114.882C38.4884 114.882 38.3831 114.859 38.3597 114.801C38.3246 114.73 38.3597 114.649 38.4182 114.613C38.5235 114.567 48.4303 109.642 50.0561 106.789C47.3426 95.8991 56.7231 92.168 60.8987 91.0685C67.0394 89.4427 208.239 91.1738 217.409 91.244C217.491 91.244 217.549 91.3024 217.549 91.3843C217.549 91.4662 217.491 91.5247 217.409 91.5247C215.163 91.5013 67.0745 89.7234 60.9689 91.3375C56.8752 92.4136 47.6467 96.0863 50.3486 106.765L50.3486 106.824L50.3369 106.87C48.7578 109.795 38.9679 114.66 38.5585 114.859C38.5351 114.859 38.5118 114.871 38.5001 114.871L38.4884 114.882Z" stroke="#F5ABAB" stroke-width="2" stroke-miterlimit="10"/>
<path d="M135.498 68.5765C127.755 68.5765 120.585 66.6699 115.112 64.6114C105.474 60.9972 98.8067 56.1314 98.7482 56.0847C98.6897 56.0379 98.678 55.956 98.7131 55.8858C98.7599 55.8273 98.8418 55.8156 98.9119 55.8507C98.9821 55.8975 105.614 60.7398 115.217 64.3423C124.071 67.6641 137.346 70.5883 150.283 65.6524C168.623 58.6462 181.501 38.1189 188.53 4.64371C188.542 4.57353 188.612 4.51505 188.694 4.53844C188.764 4.55014 188.822 4.63201 188.799 4.70219C181.746 38.2827 168.81 58.8801 150.376 65.9097C145.37 67.8162 140.317 68.5648 135.498 68.5648L135.498 68.5765Z" stroke="#F5ABAB" stroke-width="2" stroke-miterlimit="10"/>
</g>
</g>
</g>
<defs>
<clipPath id="clip0_412_13597">
<rect width="143" height="236" fill="white"/>
</clipPath>
<clipPath id="clip1_412_13597">
<rect width="295.698" height="220.63" fill="white" transform="translate(-14.0054)"/>
</clipPath>
</defs>
</svg>
